<?xml version="1.0" standalone="no"?>
<!DOCTYPE svg PUBLIC "-//W3C//DTD SVG 20010904//EN"
 "http://www.w3.org/TR/2001/REC-SVG-20010904/DTD/svg10.dtd">
<svg version="1.0" xmlns="http://www.w3.org/2000/svg"
 width="665.000000pt" height="375.000000pt" viewBox="0 0 665.000000 375.000000"
 preserveAspectRatio="xMidYMid meet">

<g transform="translate(0.000000,375.000000) scale(0.100000,-0.100000)"
fill="#000000" stroke="none">
<path d="M2100 3125 c0 -2 16 -11 35 -20 19 -8 50 -22 69 -30 19 -8 49 -15 68
-16 l33 -1 -33 -11 c-18 -7 -36 -18 -40 -24 -4 -7 -20 -17 -36 -22 -40 -16
-27 -35 30 -45 27 -5 55 -16 61 -25 11 -14 17 -12 48 22 20 21 45 37 57 37 21
0 21 -1 -5 -28 -19 -20 -24 -31 -16 -39 8 -8 8 -17 0 -31 -13 -24 4 -35 31
-20 14 6 16 5 12 -7 -11 -28 34 -16 56 15 27 38 40 31 40 -21 0 -28 4 -39 15
-39 12 0 13 -4 5 -19 -13 -25 -14 -63 -1 -42 6 10 10 10 16 1 4 -6 -1 -20 -10
-30 -19 -20 -13 -42 9 -34 16 6 26 -7 41 -50 10 -28 101 -90 118 -79 4 2 7 -1
7 -6 0 -6 7 -11 16 -11 11 0 14 5 10 16 -3 9 -6 28 -6 43 0 16 -11 45 -25 65
-30 44 -30 46 -5 46 33 0 23 19 -53 98 l-22 24 30 -6 c17 -4 40 -8 53 -11 28
-5 82 13 82 28 0 23 -15 32 -55 34 -31 2 -37 0 -25 -8 12 -9 12 -10 -4 -5 -11
4 -23 1 -27 -6 -6 -9 -11 -9 -23 1 -17 14 -22 36 -7 26 5 -3 12 -2 15 3 3 5
21 8 40 7 29 0 33 2 25 16 -4 9 -15 19 -24 23 -19 7 -14 94 6 107 20 12 -16
12 -60 -1 -19 -5 -37 -7 -40 -5 -2 3 11 21 29 40 31 32 32 35 13 35 -12 0 -25
-5 -29 -11 -4 -8 -9 -7 -16 2 -8 11 -9 11 -5 -1 5 -19 -27 -76 -42 -72 -6 1
-11 -3 -11 -9 0 -5 -5 -7 -10 -4 -6 4 -8 9 -6 13 7 12 -63 5 -79 -8 -12 -10
-25 -8 -70 10 -30 12 -59 28 -66 36 -6 8 -17 14 -25 14 -7 0 -28 9 -46 19 -22
13 -53 20 -90 20 -32 0 -58 -2 -58 -4z m190 -105 c0 -6 -4 -10 -9 -10 -5 0
-16 -2 -24 -5 -7 -3 -14 0 -14 8 0 7 11 14 24 15 13 1 23 -3 23 -8z m280 -20
c0 -5 -4 -10 -9 -10 -6 0 -13 5 -16 10 -3 6 1 10 9 10 9 0 16 -4 16 -10z
m-159 -93 c-10 -9 -11 -8 -5 6 3 10 9 15 12 12 3 -3 0 -11 -7 -18z m206 -139
c-3 -8 -6 -5 -6 6 -1 11 2 17 5 13 3 -3 4 -12 1 -19z m8 -106 c-9 -9 -25 19
-24 43 0 16 2 15 15 -8 9 -16 13 -32 9 -35z m55 -20 c0 -15 -2 -15 -10 -2 -13
20 -13 33 0 25 6 -3 10 -14 10 -23z m24 -64 c-7 -11 -7 -11 -24 22 -13 25 -13
25 8 6 12 -10 19 -23 16 -28z"/>
<path d="M2336 3115 c4 -8 8 -15 10 -15 2 0 4 7 4 15 0 8 -4 15 -10 15 -5 0
-7 -7 -4 -15z"/>
<path d="M2360 3120 c0 -5 5 -10 11 -10 5 0 7 5 4 10 -3 6 -8 10 -11 10 -2 0
-4 -4 -4 -10z"/>
<path d="M2547 3123 c-8 -7 11 -33 24 -33 5 0 9 9 9 20 0 19 -20 27 -33 13z"/>
<path d="M2834 3059 c11 -117 81 -265 157 -334 27 -24 30 -25 13 -5 -83 102
-144 274 -132 375 4 32 2 35 -20 35 -25 0 -25 -1 -18 -71z"/>
<path d="M3878 3123 c-41 -3 -58 -8 -58 -18 0 -16 -66 -69 -98 -79 -13 -4 -28
-3 -35 2 -7 5 -25 12 -42 16 -16 4 -37 14 -47 22 -9 9 -18 12 -21 7 -5 -9 10
-43 58 -132 28 -52 29 -54 10 -67 -24 -18 -65 -18 -91 0 -25 18 -57 90 -80
179 -9 37 -20 67 -24 67 -4 0 -10 -55 -13 -122 -8 -166 -7 -161 -46 -175 -28
-11 -39 -10 -64 2 -37 19 -47 19 -47 1 0 -8 19 -21 43 -30 25 -10 31 -14 13
-11 -15 3 -42 8 -60 11 l-31 5 28 -18 c15 -10 26 -22 24 -28 -2 -5 6 -19 17
-32 43 -46 46 -51 33 -56 -17 -6 -11 -10 63 -36 149 -54 206 -71 240 -71 51
-1 20 -16 -70 -35 -153 -32 -325 -7 -464 67 -12 6 -16 6 -12 -1 13 -21 142
-91 212 -115 162 -57 305 -56 446 4 62 26 72 28 130 20 100 -15 100 -15 143
43 81 107 214 231 302 282 27 16 31 23 27 44 -12 51 -56 111 -129 178 -64 58
-82 69 -123 75 -49 6 -135 7 -234 1z"/>
<path d="M4730 3105 c-41 -44 -105 -68 -163 -62 -29 2 -60 8 -69 12 -35 14
-17 -13 18 -30 60 -28 104 -30 162 -5 76 33 138 110 88 110 -7 0 -23 -11 -36
-25z"/>
<path d="M5270 3104 c-34 -19 -60 -24 -112 -24 -37 0 -68 -4 -68 -8 0 -5 9
-17 20 -27 11 -10 19 -25 18 -33 -2 -8 4 -16 14 -17 14 -3 72 -39 88 -55 3 -3
47 -7 97 -9 92 -3 93 -3 103 23 5 14 12 26 14 26 3 0 3 -7 0 -15 -12 -30 6
-14 19 16 12 31 13 31 30 14 10 -10 15 -25 12 -34 -5 -12 -4 -13 6 -4 9 9 8
17 -5 37 -9 14 -16 31 -16 38 0 10 2 10 9 -1 6 -9 10 -3 13 20 3 19 7 40 9 48
6 20 -33 29 -126 29 -64 -1 -89 -5 -125 -24z"/>
<path d="M3304 3078 c-22 -24 -58 -67 -79 -97 l-39 -54 44 -39 c25 -21 50 -38
55 -38 6 0 4 4 -3 8 -33 21 -13 123 43 219 14 24 24 43 23 43 -2 0 -22 -19
-44 -42z"/>
<path d="M4445 3110 c3 -5 15 -10 26 -10 11 0 17 5 14 10 -3 6 -15 10 -26 10
-11 0 -17 -4 -14 -10z"/>
<path d="M5090 3110 c20 -13 57 -13 65 0 4 6 -11 10 -37 10 -31 0 -39 -3 -28
-10z"/>
<path d="M5952 3098 c-64 -69 -83 -206 -43 -309 29 -76 148 -197 126 -129 -4
12 -2 20 4 20 6 0 -3 26 -21 57 -27 48 -32 67 -31 118 1 84 38 160 106 220
l52 45 -86 0 c-76 0 -88 -3 -107 -22z"/>
<path d="M6379 3093 c18 -14 46 -44 62 -66 l29 -40 0 66 0 67 -62 0 -63 0 34
-27z"/>
<path d="M5628 3098 c-3 -7 -4 -40 -2 -73 1 -45 0 -53 -6 -32 -5 16 -7 36 -4
45 2 10 -8 -8 -23 -38 l-27 -55 -12 45 -12 45 -1 -43 c-1 -34 -7 -48 -33 -72
-29 -25 -32 -31 -20 -49 16 -28 15 -41 -3 -17 -8 10 -21 16 -29 13 -9 -4 -17
1 -19 11 -4 15 -5 15 -6 -1 -1 -10 -6 -15 -12 -11 -7 4 -10 -1 -7 -12 1 -9 5
-16 8 -13 3 2 19 -6 34 -19 23 -18 31 -20 39 -10 6 9 7 7 3 -6 -4 -12 0 -23
11 -32 15 -10 21 -10 38 4 19 17 20 16 3 -3 -16 -20 -15 -22 28 -60 116 -104
225 -279 272 -440 69 -234 47 -528 -54 -726 -131 -259 -356 -444 -649 -536
-66 -21 -107 -26 -235 -30 -233 -8 -352 17 -555 118 l-100 50 61 -59 c33 -32
84 -73 112 -92 50 -32 57 -47 37 -79 -5 -10 -4 -16 4 -19 6 -2 26 -16 43 -30
18 -15 29 -22 25 -16 -4 8 3 11 24 9 17 -2 37 4 45 13 13 12 15 12 14 1 -5
-31 0 -50 12 -43 7 4 8 3 4 -4 -11 -19 -26 -14 -26 8 0 11 -5 20 -11 20 -5 0
-8 -3 -6 -8 3 -4 -2 -14 -11 -22 -14 -13 -15 -12 -10 2 4 10 1 19 -8 22 -18 7
-18 1 6 -62 22 -58 26 -116 10 -158 l-11 -27 148 7 c83 3 149 11 151 16 2 6 7
8 12 5 4 -3 7 6 6 20 0 14 -4 25 -7 25 -15 0 -16 39 -2 44 8 4 13 13 9 21 -4
12 3 15 32 14 37 -1 37 -1 10 -11 -16 -5 -28 -17 -27 -26 0 -11 2 -12 6 -4 2
6 8 10 13 7 5 -3 17 6 28 20 21 27 62 42 62 23 0 -5 7 -8 14 -5 10 4 13 1 10
-7 -3 -8 -13 -13 -22 -12 -9 0 -18 -8 -20 -19 -3 -15 -1 -17 9 -9 20 15 51 11
57 -6 4 -12 3 -13 -10 -2 -13 10 -16 9 -22 -10 -3 -13 -1 -24 4 -26 5 -2 7 -9
4 -17 -3 -8 -13 -11 -21 -8 -13 5 -13 3 -4 -15 l11 -21 711 0 c391 0 718 3
725 6 21 8 20 421 -1 449 -18 24 -19 51 -2 57 10 4 10 6 0 6 -7 1 -21 9 -32
20 -10 10 -26 23 -35 28 -9 5 -19 22 -22 37 -3 19 -1 25 6 21 6 -4 9 -13 6
-20 -2 -7 5 -21 17 -32 22 -18 22 -18 4 3 -9 11 -14 23 -11 27 8 8 34 -18 34
-33 0 -6 5 -8 10 -5 16 10 11 48 -10 80 -21 32 -26 55 -11 55 5 0 12 -11 15
-24 3 -13 13 -27 22 -30 13 -5 14 -3 7 6 -5 7 -13 20 -16 29 -4 13 -1 16 14
12 18 -5 19 1 19 90 l0 95 -80 20 c-44 11 -80 17 -80 13 0 -11 -43 -6 -70 8
-37 20 -70 53 -64 63 4 5 -18 8 -50 6 -34 -2 -57 0 -58 7 -1 10 -4 37 -7 68 0
11 -6 15 -13 11 -6 -4 -8 -3 -5 3 3 5 0 27 -8 49 -20 56 -19 126 3 155 19 26
28 45 61 126 62 153 168 239 308 251 l63 5 0 75 c0 72 -1 74 -22 68 -169 -45
-379 -21 -508 57 -59 35 -121 90 -161 139 -20 26 -39 45 -43 42 -3 -2 -4 -1
-2 2 7 9 -15 65 -23 59 -4 -2 -8 1 -9 8 0 7 -12 46 -26 87 -14 41 -26 85 -26
98 0 13 -3 21 -7 19 -9 -6 -7 125 2 161 6 23 -9 32 -17 10z m-21 -120 c-3 -7
-5 -2 -5 12 0 14 2 19 5 13 2 -7 2 -19 0 -25z m10 -60 c-3 -7 -5 -2 -5 12 0
14 2 19 5 13 2 -7 2 -19 0 -25z m-153 -70 c-2 -3 -13 -6 -24 -5 -24 2 -18 13
9 13 11 0 18 -4 15 -8z m566 -1278 c0 -5 -5 -10 -11 -10 -5 0 -7 5 -4 10 3 6
8 10 11 10 2 0 4 -4 4 -10z m-43 -92 c-3 -8 -6 -5 -6 6 -1 11 2 17 5 13 3 -3
4 -12 1 -19z m4 -53 c8 5 9 0 5 -16 l-7 -24 14 23 c7 12 16 19 20 16 10 -11 9
-26 -2 -20 -5 3 -11 -1 -15 -9 -8 -23 -20 -18 -41 18 -15 26 -16 30 -2 19 9
-8 21 -11 28 -7z m63 -10 c-4 -8 -8 -15 -10 -15 -2 0 -4 7 -4 15 0 8 4 15 10
15 5 0 7 -7 4 -15z m-103 -52 c-12 -20 -14 -14 -5 12 4 9 9 14 11 11 3 -2 0
-13 -6 -23z m289 -25 c0 -7 12 -24 25 -37 30 -28 33 -46 6 -29 -11 7 -17 16
-15 20 3 4 1 8 -4 8 -5 0 -17 11 -26 25 -14 22 -15 25 -1 25 8 0 15 -6 15 -12z
m38 -113 c-3 -3 -9 2 -12 12 -6 14 -5 15 5 6 7 -7 10 -15 7 -18z m-563 -154
c46 -20 102 -79 111 -117 4 -14 4 -49 2 -79 -11 -137 -145 -207 -299 -157 -36
12 -86 21 -116 20 -65 -2 -97 18 -98 60 0 17 2 29 6 27 13 -9 91 79 115 129
14 29 39 67 57 84 54 52 150 66 222 33z m710 -21 c10 -11 16 -20 13 -20 -3 0
-13 9 -23 20 -10 11 -16 20 -13 20 3 0 13 -9 23 -20z m-1925 -140 c8 -5 11
-10 5 -10 -5 0 -17 5 -25 10 -8 5 -10 10 -5 10 6 0 17 -5 25 -10z m64 1 c3 -5
-2 -15 -12 -22 -15 -12 -16 -12 -5 2 7 9 10 19 6 22 -3 4 -4 7 0 7 3 0 8 -4
11 -9z m296 -91 c-19 -4 -46 -10 -60 -14 -18 -5 -21 -4 -11 3 11 7 8 10 -15
13 -16 2 5 4 46 4 52 1 64 -1 40 -6z m-200 -56 c0 -2 -9 0 -20 6 -11 6 -20 13
-20 16 0 2 9 0 20 -6 11 -6 20 -13 20 -16z"/>
<path d="M5584 1070 c-113 -16 -179 -161 -124 -270 11 -22 26 -40 33 -41 33
-3 46 -5 101 -18 79 -18 129 1 169 61 25 37 28 51 25 100 -8 109 -98 184 -204
168z"/>
<path d="M5354 819 c-25 -28 -8 -54 37 -54 40 0 51 26 23 56 -22 24 -36 24
-60 -2z m33 -24 c0 -8 -4 -12 -9 -9 -5 3 -6 10 -3 15 9 13 12 11 12 -6z m30 0
c0 -8 -4 -12 -9 -9 -5 3 -6 10 -3 15 9 13 12 11 12 -6z"/>
<path d="M5747 3063 c-23 -51 -34 -167 -23 -228 11 -58 21 -40 24 43 2 66 16
142 38 215 12 38 -18 14 -39 -30z"/>
<path d="M5535 3081 c-19 -8 -19 -8 4 -16 15 -5 26 -3 31 5 4 7 15 10 24 7 9
-4 16 -2 16 3 0 12 -46 12 -75 1z"/>
<path d="M2565 3060 c-3 -5 -1 -10 4 -10 6 0 11 5 11 10 0 6 -2 10 -4 10 -3 0
-8 -4 -11 -10z"/>
<path d="M5474 2970 c0 -13 4 -16 10 -10 7 7 7 13 0 20 -6 6 -10 3 -10 -10z"/>
<path d="M6378 2945 c9 -102 -84 -169 -195 -141 l-33 8 18 -31 c15 -28 15 -33
2 -41 -13 -9 -13 -10 0 -10 13 0 13 -1 0 -10 -8 -5 -11 -10 -7 -10 5 0 1 -7
-7 -16 -9 -8 -16 -20 -16 -25 0 -15 48 -22 103 -14 72 9 95 9 147 -2 l45 -9
-41 -27 c-59 -40 -147 -54 -237 -39 -39 7 -82 20 -95 28 -34 22 -37 12 -5 -22
88 -95 251 -126 389 -73 l24 9 0 208 0 209 -40 18 c-22 10 -40 22 -40 27 0 4
-3 8 -8 8 -4 0 -6 -20 -4 -45z"/>
<path d="M5340 2910 c-9 -6 -10 -10 -3 -10 6 0 15 5 18 10 8 12 4 12 -15 0z"/>
<path d="M4550 2790 c-35 -22 -60 -30 -105 -33 -33 -2 -61 -9 -63 -15 -2 -7
-9 -12 -16 -12 -7 0 -22 -18 -33 -41 -13 -25 -23 -36 -28 -29 -4 6 0 19 7 28
8 9 18 23 22 29 10 18 -24 5 -51 -20 -27 -24 -29 -37 -8 -37 8 0 15 -9 15 -21
0 -11 4 -17 10 -14 5 3 2 -15 -7 -40 -13 -34 -19 -41 -26 -30 -4 8 -5 20 -1
27 4 7 3 8 -4 4 -7 -4 -9 -18 -6 -32 5 -18 3 -23 -7 -19 -10 4 -14 -4 -15 -22
-2 -35 -22 -88 -31 -79 -3 3 -6 23 -5 43 1 21 -2 33 -6 27 -15 -23 -50 -34
-76 -24 -21 8 -28 6 -41 -13 -8 -12 -15 -27 -15 -34 0 -7 -5 -13 -11 -13 -5 0
-7 5 -4 10 3 6 2 10 -4 10 -5 0 -8 -18 -6 -40 2 -22 -1 -40 -6 -40 -5 0 -9 -7
-9 -15 0 -19 19 -19 39 -1 9 8 31 17 50 21 27 6 32 4 25 -6 -6 -10 -3 -10 11
1 17 14 17 13 10 -10 -11 -37 -65 -90 -92 -90 -22 0 -22 -1 9 -30 34 -33 43
-37 35 -16 -6 14 19 31 38 27 6 -1 5 3 -2 10 -10 10 -16 9 -30 -2 -16 -12 -16
-11 1 8 10 13 22 20 26 18 4 -3 11 3 14 12 6 15 8 15 16 3 7 -11 10 -11 10 -2
0 7 16 27 35 46 19 18 31 37 27 41 -4 3 -2 5 3 4 6 -2 37 23 70 55 61 59 105
91 89 64 -6 -11 -5 -11 9 1 9 7 14 17 11 22 -2 5 6 11 20 15 13 3 27 12 30 21
3 8 11 11 18 7 8 -5 9 -2 5 10 -5 13 -3 17 5 13 7 -2 19 2 26 9 10 11 10 14 0
14 -7 0 2 10 20 21 17 12 32 26 33 32 4 43 3 54 -7 70 -21 33 -3 74 29 68 5
-1 6 3 2 9 -8 13 -3 15 -55 -20z m-6 -36 c11 -4 14 -14 9 -37 -3 -18 -10 -36
-14 -41 -15 -16 -10 -29 7 -22 15 6 15 4 3 -10 -8 -10 -15 -12 -17 -5 -2 6 -8
9 -13 5 -5 -3 -9 -2 -8 3 1 4 -1 16 -6 26 -6 14 -10 16 -16 6 -6 -10 -11 -5
-18 14 -21 54 -12 70 21 40 11 -9 18 -11 18 -5 0 7 8 12 18 12 14 0 15 2 2 10
-17 11 -10 13 14 4z m-126 -26 c7 -7 12 -26 11 -42 l-1 -31 -9 33 c-11 38 -24
41 -40 10 -9 -19 -9 -21 2 -10 21 19 32 14 27 -13 -3 -13 -2 -26 3 -27 4 -2
-5 -18 -21 -35 l-29 -32 -16 21 c-20 30 -19 35 15 91 32 50 39 54 58 35z"/>
<path d="M4470 2720 c0 -5 5 -10 11 -10 5 0 7 5 4 10 -3 6 -8 10 -11 10 -2 0
-4 -4 -4 -10z"/>
<path d="M4352 2658 c-7 -9 -6 -17 4 -26 12 -11 14 -9 14 13 0 28 -3 30 -18
13z"/>
<path d="M5021 2754 c0 -11 3 -14 6 -6 3 7 2 16 -1 19 -3 4 -6 -2 -5 -13z"/>
<path d="M4251 2644 c10 -13 10 -17 -2 -25 -8 -5 -19 -9 -25 -9 -6 0 -16 -18
-22 -40 -8 -33 -7 -43 5 -56 22 -21 29 -9 13 22 -13 23 -12 27 12 47 38 32 52
63 32 71 -24 9 -27 7 -13 -10z"/>
<path d="M4225 2630 c-3 -5 -2 -10 4 -10 5 0 13 5 16 10 3 6 2 10 -4 10 -5 0
-13 -4 -16 -10z"/>
<path d="M4275 2610 c-3 -5 -1 -10 4 -10 6 0 11 5 11 10 0 6 -2 10 -4 10 -3 0
-8 -4 -11 -10z"/>
<path d="M4660 2597 c-183 -57 -325 -173 -405 -331 -55 -110 -68 -180 -62
-321 5 -133 26 -208 88 -311 54 -90 215 -230 192 -166 -4 9 -9 19 -12 22 -8 7
-45 72 -87 154 -42 81 -74 199 -74 272 0 65 23 186 45 238 49 116 146 223 261
290 128 73 182 86 369 86 150 0 203 8 176 24 -6 4 -44 19 -84 33 -60 21 -94
26 -202 29 -114 3 -139 1 -205 -19z"/>
<path d="M4133 2517 c-10 -16 6 -20 24 -6 15 12 16 12 10 -5 -6 -16 -5 -17 8
-6 8 7 15 15 15 19 0 10 -50 8 -57 -2z"/>
<path d="M5326 2453 c206 -185 268 -516 144 -762 -65 -130 -183 -247 -316
-314 -169 -85 -429 -88 -599 -5 l-40 19 25 -20 c41 -34 161 -89 230 -107 93
-24 282 -16 365 16 109 41 196 99 282 187 151 153 204 309 183 532 -15 164
-62 271 -160 371 -36 36 -83 76 -105 88 l-40 22 31 -27z"/>
<path d="M4840 2410 c0 -11 70 -80 81 -80 5 0 9 -9 9 -20 0 -13 7 -20 19 -20
11 0 23 -4 26 -10 3 -5 1 -10 -6 -10 -7 0 -10 -2 -7 -5 7 -7 38 5 38 14 0 4
-11 11 -25 17 -22 8 -23 11 -10 28 15 19 15 19 15 -2 0 -20 10 -27 32 -23 4 0
5 -5 2 -13 -8 -21 15 -30 34 -14 30 26 42 30 36 14 -3 -9 -9 -16 -14 -16 -4 0
-17 -9 -29 -19 -27 -23 -21 -64 7 -54 10 3 2 -10 -17 -30 -40 -42 -49 -47 -27
-15 9 12 16 32 16 43 -1 18 -2 18 -16 -5 -14 -24 -14 -24 -9 15 3 22 2 34 -1
28 -8 -18 -24 -16 -24 2 0 13 -4 14 -21 5 -15 -9 -24 -8 -35 1 -16 14 -17 6
-4 -39 8 -29 7 -33 -6 -28 -18 7 -74 -32 -74 -51 0 -19 -12 -16 -36 10 -28 30
-37 57 -23 73 19 23 46 16 54 -13 6 -24 8 -26 16 -10 6 10 14 15 20 12 5 -4 9
2 9 12 -1 23 -49 123 -49 103 -1 -11 -13 -15 -49 -15 -62 0 -109 -21 -127 -56
-20 -38 -19 -65 5 -89 27 -27 38 -25 32 6 -3 19 -1 25 7 20 7 -5 11 -20 9 -34
-2 -20 3 -30 19 -37 12 -5 24 -18 27 -28 4 -18 4 -18 -17 1 -12 11 -54 31 -93
45 -64 22 -76 23 -109 11 -40 -13 -89 -60 -100 -95 -21 -65 35 -139 106 -139
21 0 39 4 39 9 0 4 -11 6 -25 3 -16 -3 -26 1 -28 9 -5 17 -22 67 -32 94 -5 11
-5 17 0 13 4 -4 14 0 23 8 8 9 23 13 33 11 10 -3 19 -1 21 4 2 4 9 5 16 0 12
-7 11 -13 -1 -38 -9 -16 -23 -35 -31 -42 -9 -8 -16 -19 -16 -25 0 -6 7 -2 15
8 14 19 15 19 28 2 13 -18 15 -18 37 5 l22 24 -11 -23 c-12 -22 -10 -23 21
-21 51 3 68 0 68 -11 0 -5 -8 -10 -17 -10 -16 -1 -16 -1 -2 -10 9 -5 20 -26
23 -45 6 -31 15 -40 38 -36 4 0 5 -6 2 -14 -4 -8 -1 -15 4 -15 6 0 14 -9 17
-21 4 -11 17 -24 30 -29 44 -17 123 -183 96 -200 -24 -14 -72 3 -96 35 -25 31
-34 62 -16 50 18 -10 22 14 7 48 -18 44 -30 51 -52 30 -16 -17 -17 -16 -12 9
3 15 2 25 -2 23 -5 -3 -11 3 -14 12 -6 15 -8 15 -16 3 -8 -12 -10 -13 -10 -1
0 11 -5 9 -22 -5 -22 -19 -22 -19 -8 0 16 21 17 21 -33 1 -8 -3 -14 0 -14 8 0
9 7 12 19 9 10 -2 20 2 24 12 3 9 12 16 20 16 8 0 14 7 14 15 0 20 -10 19 -36
-6 -19 -18 -22 -18 -28 -4 -3 9 -2 13 3 10 5 -3 12 -1 16 5 3 5 2 10 -4 10 -5
0 -17 3 -26 6 -12 5 -16 2 -13 -12 2 -14 -2 -18 -15 -16 -17 3 -18 -1 -12 -37
6 -34 4 -40 -8 -35 -8 3 -18 0 -23 -7 -4 -7 -2 -15 4 -17 7 -2 10 -8 7 -12 -3
-5 5 -16 17 -24 22 -16 22 -16 -13 -16 -19 0 -40 5 -47 12 -8 8 -12 8 -12 1 0
-16 64 -43 103 -43 29 0 37 5 45 28 l10 27 1 -32 c1 -32 28 -52 50 -38 6 3 9
-3 8 -14 0 -11 -4 -18 -8 -15 -4 2 -10 -3 -13 -13 -9 -22 19 -50 50 -50 22 0
23 1 8 12 -10 6 -14 17 -10 23 4 7 26 -1 64 -23 106 -63 182 -66 244 -11 25
22 43 76 40 118 0 9 6 19 14 22 8 3 11 12 7 22 -5 14 -2 16 23 10 l29 -6 -27
15 c-35 19 -35 25 -3 25 18 0 28 -7 34 -23 14 -37 71 -25 71 14 0 11 4 18 9
15 13 -9 59 49 70 89 6 21 6 48 -1 72 -5 21 -13 53 -18 71 -7 29 -6 33 8 27
13 -5 12 -2 -3 15 -13 14 -14 20 -5 20 9 0 7 5 -6 15 -18 14 -18 14 6 15 23 1
24 2 7 14 -17 13 -16 14 3 19 24 6 37 34 22 49 -8 8 -19 8 -39 -1 l-28 -13 23
24 c38 41 28 59 -64 121 -33 23 -39 25 -47 11 -6 -11 -4 -19 8 -27 14 -11 10
-15 -31 -35 -25 -13 -49 -20 -52 -17 -3 3 0 5 7 5 7 0 9 5 4 13 -15 24 -12 47
7 57 17 9 18 14 9 31 -8 15 -14 18 -22 10 -8 -8 -16 -6 -29 6 -15 14 -18 14
-13 2 3 -9 -4 -24 -16 -35 -19 -16 -21 -16 -16 -2 4 11 1 15 -11 13 -27 -4
-33 5 -16 22 13 14 17 14 26 2 8 -12 9 -12 5 1 -2 8 -13 15 -25 15 -12 0 -22
4 -21 8 0 12 -25 34 -48 41 -28 9 -40 -12 -17 -29 11 -8 15 -14 9 -14 -16 0
-47 27 -42 36 3 5 -7 14 -24 20 -16 6 -29 8 -29 3z m144 -304 c-3 -8 -12 -17
-20 -20 -11 -4 -12 -2 -1 14 14 23 29 27 21 6z m83 8 c-3 -3 -12 -4 -19 -1 -8
3 -5 6 6 6 11 1 17 -2 13 -5z m-407 -36 c0 -12 14 -34 33 -50 l32 -28 -28 6
c-21 5 -27 3 -25 -7 3 -15 -1 -15 -45 -5 -20 5 -29 2 -33 -9 -4 -8 -10 -15
-15 -15 -12 0 30 68 50 80 9 6 11 10 3 10 -10 0 -10 4 0 20 17 26 28 25 28 -2z
m503 12 c18 0 19 -2 7 -10 -23 -15 -57 -12 -57 5 0 10 6 14 14 10 8 -3 24 -5
36 -5z m55 -237 c-22 -21 -28 -23 -51 -12 l-26 12 47 37 47 37 3 -25 c2 -16
-5 -33 -20 -49z m-182 -15 c9 -18 22 -36 28 -40 7 -5 5 -8 -5 -8 -17 0 -40 22
-58 58 -10 18 -9 22 3 22 9 0 23 -15 32 -32z m-436 -150 c0 -6 -7 -7 -16 -4
-9 3 -18 6 -20 6 -3 0 -3 4 1 10 7 11 35 2 35 -12z m415 -121 c-8 -13 -27 -29
-41 -35 -28 -13 -122 -16 -141 -4 -6 4 22 7 63 7 67 0 76 2 101 28 34 33 38
34 18 4z"/>
<path d="M3145 2401 c-78 -19 -154 -81 -192 -155 -21 -41 -26 -65 -27 -126 0
-93 27 -153 96 -215 44 -40 130 -76 145 -61 3 3 -5 6 -18 7 l-24 1 25 8 c14 4
46 8 71 9 57 1 109 19 109 37 0 7 -13 23 -29 35 l-30 22 33 41 c18 23 41 60
51 84 10 23 22 42 27 42 24 0 78 -31 78 -45 0 -9 -4 -14 -9 -11 -5 3 -12 -2
-15 -11 -5 -13 -9 -14 -15 -5 -5 9 -13 5 -28 -12 -21 -24 -21 -25 -2 -42 10
-9 19 -20 19 -24 0 -3 -16 -25 -36 -48 -26 -31 -31 -42 -19 -42 24 0 73 57
104 121 24 49 27 68 26 139 -3 96 -21 129 -80 146 -21 5 -46 21 -56 33 -17 21
-25 16 -20 -11 1 -8 -15 -12 -38 -8 -8 1 -32 -18 -54 -42 -32 -36 -36 -43 -20
-46 76 -12 89 -31 16 -26 -49 3 -62 13 -58 47 1 12 3 27 4 34 1 14 98 69 126
72 11 1 35 2 54 3 l34 0 -24 19 c-46 36 -145 49 -224 30z m299 -197 c20 -8 21
-44 1 -44 -8 0 -15 7 -15 15 0 7 -8 19 -17 24 -16 9 -16 10 -1 11 9 0 23 -3
32 -6z m-274 -14 c11 -7 11 -10 2 -10 -7 0 -10 -4 -7 -10 3 -6 -1 -7 -9 -4 -9
3 -16 2 -17 -2 0 -5 -2 -18 -4 -29 -2 -11 3 -30 11 -42 7 -12 14 -24 14 -26 0
-12 -57 4 -82 23 -16 11 -33 18 -39 14 -8 -4 -8 -1 -1 12 6 11 25 28 43 38 17
10 29 15 26 9 -3 -5 -1 -15 4 -23 8 -11 9 -7 6 17 -4 40 20 55 53 33z m119
-123 c17 4 20 2 15 -11 -9 -22 -37 -20 -60 5 -19 22 -19 22 2 11 11 -6 31 -8
43 -5z m-209 -37 c12 -8 12 -10 -3 -16 -9 -3 -17 -10 -17 -15 0 -6 -9 -20 -20
-32 l-21 -21 5 24 c2 14 5 35 5 48 1 23 24 29 51 12z m340 -4 c0 -3 -4 -8 -10
-11 -5 -3 -10 -1 -10 4 0 6 5 11 10 11 6 0 10 -2 10 -4z m-172 -61 c-3 -3 -13
7 -23 22 l-17 28 23 -22 c12 -12 20 -25 17 -28z m-138 -95 c8 -5 11 -10 5 -10
-5 0 -17 5 -25 10 -8 5 -10 10 -5 10 6 0 17 -5 25 -10z"/>
<path d="M4075 2340 c-3 -5 -1 -10 4 -10 6 0 11 5 11 10 0 6 -2 10 -4 10 -3 0
-8 -4 -11 -10z"/>
<path d="M4875 2323 c17 -36 20 -58 4 -30 -5 9 -15 17 -21 17 -6 0 -4 -8 5
-18 20 -22 44 -24 51 -5 4 9 1 11 -6 7 -8 -5 -9 -2 -5 9 3 9 2 16 -3 14 -5 -1
-16 7 -25 18 -15 19 -15 18 0 -12z"/>
<path d="M4837 2329 c7 -7 15 -10 18 -7 3 3 -2 9 -12 12 -14 6 -15 5 -6 -5z"/>
<path d="M3495 2263 c30 -70 37 -103 32 -154 -15 -168 -144 -291 -307 -293
-39 0 -70 -1 -70 -3 0 -2 16 -21 36 -43 28 -30 52 -45 101 -60 224 -69 432 46
450 249 8 91 -16 160 -81 224 -69 69 -180 124 -161 80z"/>
<path d="M4001 2259 c-7 -12 -8 -18 -2 -14 6 3 11 2 11 -4 0 -5 -4 -13 -10
-16 -5 -3 -10 -15 -10 -26 0 -11 4 -18 10 -14 5 3 7 12 3 21 -3 9 0 14 7 12 7
-2 13 7 15 19 3 34 -9 45 -24 22z"/>
<path d="M4880 2225 c0 -8 4 -15 10 -15 5 0 7 7 4 15 -4 8 -8 15 -10 15 -2 0
-4 -7 -4 -15z"/>
<path d="M4072 2165 c-15 -32 -15 -48 -2 -40 6 4 8 10 5 15 -3 4 2 13 10 20
16 14 20 30 7 30 -5 0 -14 -11 -20 -25z"/>
<path d="M3995 2161 c-3 -5 -1 -12 4 -16 15 -9 3 -76 -17 -91 -9 -7 -14 -16
-10 -20 4 -4 15 -1 25 7 9 8 14 9 10 2 -7 -12 28 -43 48 -43 5 0 3 5 -5 10
-11 7 -11 10 -2 10 8 0 10 5 6 12 -5 8 -1 9 12 4 14 -5 16 -4 8 4 -12 12 -47
3 -38 -11 3 -5 0 -9 -5 -9 -18 0 -12 19 9 30 l21 11 -21 26 c-11 14 -20 31
-20 37 1 6 8 -1 16 -16 17 -32 20 -34 28 -12 3 8 2 13 -3 10 -4 -3 -17 10 -27
29 -19 36 -28 42 -39 26z"/>
<path d="M3966 2135 c-3 -9 -2 -13 4 -10 6 3 10 1 10 -4 0 -6 -4 -11 -10 -11
-5 0 -10 -4 -10 -8 0 -5 6 -9 14 -9 9 0 13 9 11 24 -3 31 -11 38 -19 18z"/>
<path d="M6165 2019 c-4 -6 -5 -12 -2 -15 2 -3 7 2 10 11 7 17 1 20 -8 4z"/>
<path d="M4035 1979 c-4 -5 -1 -9 5 -9 6 0 8 -4 5 -10 -3 -5 0 -7 7 -5 18 7
23 -50 8 -86 -9 -20 -18 -26 -34 -25 -14 2 -23 -3 -23 -11 0 -7 10 -13 21 -14
18 -1 18 -2 -4 -9 -21 -7 -22 -8 -5 -9 12 -1 27 -7 34 -13 10 -11 11 -8 6 13
-4 17 -2 30 6 34 8 5 10 4 5 -3 -4 -7 -3 -19 2 -27 5 -10 8 22 8 83 0 87 -2
98 -18 99 -10 1 -20 -2 -23 -8z"/>
<path d="M3979 1943 c-13 -16 -12 -17 4 -4 9 7 17 15 17 17 0 8 -8 3 -21 -13z"/>
<path d="M3990 1916 c0 -8 4 -18 10 -21 6 -3 7 1 4 9 -4 10 -1 16 10 16 8 0
14 -6 12 -12 -1 -7 -1 -10 1 -5 3 4 10 4 16 0 7 -4 6 1 -2 10 -16 21 -51 22
-51 3z"/>
<path d="M4620 1920 c-7 -4 -14 -20 -16 -35 -2 -23 -1 -25 9 -11 7 8 21 22 31
29 16 11 16 15 4 19 -8 4 -21 2 -28 -2z"/>
<path d="M6058 1884 c-22 -22 11 -188 43 -219 6 -5 3 8 -6 30 -10 22 -20 75
-24 118 -3 44 -9 75 -13 71z"/>
<path d="M4660 1850 c-9 -6 -10 -10 -3 -10 6 0 15 5 18 10 8 12 4 12 -15 0z"/>
<path d="M4730 1790 c0 -11 4 -20 9 -20 5 0 7 9 4 20 -3 11 -7 20 -9 20 -2 0
-4 -9 -4 -20z"/>
<path d="M4025 1777 c11 -9 25 -17 30 -17 7 0 9 -15 7 -37 -4 -32 -3 -36 10
-26 11 10 17 10 27 0 10 -9 11 -8 6 6 -4 9 -15 17 -24 17 -14 1 -14 2 2 14 16
12 16 14 2 20 -9 3 -14 10 -10 15 3 6 -3 9 -12 9 -10 0 -27 3 -38 7 l-20 8 20
-16z"/>
<path d="M4476 1722 c-3 -6 -1 -14 5 -17 14 -9 20 -2 10 14 -6 8 -11 9 -15 3z"/>
<path d="M6440 1690 c27 -20 36 -19 27 5 -4 8 -17 15 -29 15 l-23 0 25 -20z"/>
<path d="M4082 1646 c-9 -21 -8 -23 9 -19 11 3 22 9 25 14 3 5 -2 6 -11 3 -11
-5 -14 -2 -9 10 10 25 -2 19 -14 -8z"/>
<path d="M6070 1631 c0 -6 4 -12 8 -15 5 -3 9 1 9 9 0 8 -4 15 -9 15 -4 0 -8
-4 -8 -9z"/>
<path d="M6427 1550 c-14 -11 -33 -20 -44 -21 -16 0 -16 -1 2 -8 11 -5 35 -12
53 -15 31 -7 32 -7 32 28 0 41 -7 44 -43 16z"/>
<path d="M4216 1463 c-6 -14 -5 -15 5 -6 7 7 10 15 7 18 -3 3 -9 -2 -12 -12z"/>
<path d="M2835 1460 c-3 -5 -1 -10 5 -10 6 0 8 -6 4 -12 -4 -7 -3 -9 1 -5 12
10 15 37 5 37 -5 0 -12 -4 -15 -10z"/>
<path d="M2768 1401 c-20 -19 -24 -41 -8 -41 5 0 7 8 4 18 -5 14 -4 14 5 2 12
-17 20 -11 26 19 5 25 -4 26 -27 2z"/>
<path d="M3776 1384 c43 -55 86 -130 112 -193 62 -151 52 -376 -24 -518 -13
-25 -24 -50 -24 -54 0 -5 38 -9 84 -9 l84 0 9 78 c21 198 -3 445 -52 543 -23
45 -103 119 -190 173 l-29 19 30 -39z"/>
<path d="M3180 1384 c-54 -11 -149 -46 -160 -60 -7 -8 -18 -14 -24 -14 -7 0
-27 -16 -46 -35 -26 -27 -39 -33 -59 -29 l-26 5 25 -16 c25 -16 25 -16 -15
-11 l-40 5 24 -18 c16 -12 20 -20 12 -25 -18 -11 -38 -68 -49 -139 -21 -132
29 -278 127 -374 42 -41 71 -59 71 -43 0 5 -5 10 -11 10 -5 0 -8 4 -5 9 3 5
-1 11 -9 15 -8 3 -15 12 -15 19 0 8 -8 22 -19 31 -10 9 -31 45 -47 79 -24 53
-28 75 -28 147 0 80 16 160 33 160 4 0 30 -24 58 -54 27 -30 80 -71 116 -91
58 -32 128 -93 186 -165 17 -21 20 -22 21 -7 0 10 7 20 15 23 8 4 12 11 9 18
-4 6 19 -14 50 -44 53 -51 79 -84 36 -45 -11 10 -20 14 -20 9 0 -13 128 -134
142 -134 6 0 -1 15 -18 33 l-29 32 36 -33 c30 -28 43 -33 75 -30 55 4 56 29 4
64 -23 16 -92 70 -153 121 -100 83 -112 90 -125 75 -7 -10 -11 -12 -8 -5 4 6
-16 31 -44 55 -45 39 -80 92 -68 103 8 8 121 -45 147 -68 14 -13 21 -15 17 -7
-4 8 0 6 8 -5 9 -11 35 -40 58 -65 24 -24 28 -31 11 -15 -18 15 -35 26 -38 23
-3 -3 47 -56 112 -117 92 -88 123 -111 142 -109 14 2 27 9 29 17 5 14 -234
250 -253 251 -6 0 -27 17 -47 38 -26 27 -37 49 -42 84 -7 45 -36 90 -36 55 0
-9 -10 -22 -22 -28 -13 -6 -33 -21 -45 -32 -35 -32 -27 -9 12 34 19 22 35 43
35 47 0 11 -148 122 -163 122 -7 0 11 -21 38 -46 54 -50 48 -49 -30 4 l-50 34
38 -37 c48 -46 43 -55 -8 -15 -21 16 -40 30 -43 30 -2 0 16 -24 40 -52 82 -97
70 -98 -53 -3 -76 59 -76 53 7 109 77 50 225 73 314 46 47 -13 83 -13 74 1 -3
6 -32 22 -62 36 -55 24 -158 37 -212 27z m-145 -219 c22 -19 36 -34 30 -34 -5
0 -28 15 -50 34 -22 19 -35 35 -30 35 6 0 28 -16 50 -35z m-17 -28 c35 -32 26
-41 -13 -11 -19 14 -35 31 -35 36 0 11 17 2 48 -25z m-11 -39 c13 -15 13 -18
2 -18 -14 1 -79 54 -79 65 0 9 59 -28 77 -47z m598 -378 c21 -22 37 -40 34
-40 -3 0 -23 18 -44 40 -21 22 -37 40 -34 40 3 0 23 -18 44 -40z"/>
<path d="M2698 1306 c-18 -28 -33 -56 -33 -62 0 -6 -6 -18 -13 -26 -32 -40
-73 -241 -52 -262 5 -5 10 -17 9 -26 0 -11 -3 -10 -10 5 -8 17 -9 17 -4 -5 2
-14 5 -32 6 -40 0 -8 5 -1 10 15 5 17 7 46 3 66 -3 23 -1 40 6 44 7 4 9 19 5
38 -5 25 -4 29 5 17 8 -12 9 -9 4 13 -5 20 -2 27 9 27 18 0 49 71 36 85 -16
16 -10 27 7 11 16 -17 34 -13 34 7 0 7 -4 6 -10 -3 -8 -13 -10 -12 -10 3 0 9
5 17 10 17 6 0 10 5 10 11 0 5 -5 7 -11 3 -7 -4 -10 -1 -7 7 3 8 10 13 16 12
6 -2 9 4 6 12 -4 9 0 15 10 15 9 0 16 5 16 12 0 6 9 21 19 32 20 21 20 21 -10
22 -25 1 -34 -7 -61 -50z"/>
<path d="M6455 1230 c3 -5 8 -10 11 -10 2 0 4 5 4 10 0 6 -5 10 -11 10 -5 0
-7 -4 -4 -10z"/>
<path d="M2825 1189 c10 -10 22 -16 27 -13 12 8 -6 27 -28 30 -14 2 -14 0 1
-17z"/>
<path d="M6450 1150 c0 -5 5 -10 10 -10 6 0 10 5 10 10 0 6 -4 10 -10 10 -5 0
-10 -4 -10 -10z"/>
<path d="M2270 1131 c0 -12 4 -19 10 -16 6 3 10 0 10 -9 0 -8 3 -23 6 -33 5
-15 4 -15 -5 -3 -9 12 -11 12 -11 1 0 -11 -4 -10 -19 3 -18 16 -19 16 -24 -21
-3 -27 1 -44 13 -58 10 -11 23 -30 29 -43 l12 -22 -41 16 c-22 9 -43 14 -46
11 -3 -3 15 -22 40 -43 25 -21 46 -45 46 -53 0 -11 -3 -12 -11 -4 -15 15 -49
4 -49 -16 0 -9 5 -22 12 -29 17 -17 0 -28 -22 -14 -27 16 -33 15 -26 -4 5 -14
4 -15 -9 -4 -12 10 -16 9 -21 -5 -4 -9 -1 -20 5 -25 20 -12 -17 -22 -39 -10
-12 7 -21 7 -25 0 -6 -9 31 -23 51 -19 21 4 28 -2 14 -11 -11 -7 3 -10 48 -10
43 0 62 4 62 13 0 9 3 8 9 -2 6 -9 18 -11 34 -7 32 8 57 -2 51 -19 -5 -11 21
-26 51 -29 13 -1 28 -26 21 -33 -3 -4 -15 2 -26 12 -11 10 -20 15 -20 10 0 -4
-6 -3 -13 3 -7 6 -31 15 -53 20 -33 7 -44 6 -63 -9 -13 -11 -30 -19 -39 -19
-12 0 -13 -3 -5 -11 8 -8 18 -6 37 6 28 19 89 16 110 -5 7 -7 -9 -10 -51 -10
-63 0 -93 -6 -93 -20 0 -4 48 -7 106 -5 112 2 129 9 118 50 -5 20 -5 20 11 0
12 -15 18 -17 24 -7 4 7 14 12 22 10 9 -2 15 7 17 25 6 48 27 24 27 -29 l-1
-50 37 1 c39 0 42 12 11 48 -11 12 -13 23 -6 40 6 12 8 32 6 44 -3 21 -7 22
-65 16 -34 -3 -69 -12 -78 -20 -14 -12 -17 -12 -23 2 -10 26 -7 47 8 64 8 9
17 30 21 46 l7 30 -21 -32 c-26 -41 -38 -44 -15 -3 10 16 15 32 12 35 -11 12
-64 -23 -78 -52 -14 -27 -14 -27 -18 -5 -4 28 20 68 48 77 33 10 24 48 -21 94
-26 25 -39 47 -35 56 9 24 -12 68 -30 61 -8 -3 -13 -2 -10 3 3 4 -3 16 -14 26
-19 18 -20 17 -20 -4z m35 -133 c1 -13 3 -29 4 -36 0 -7 6 -10 11 -7 6 3 10 1
10 -4 0 -14 -17 -14 -25 -1 -8 14 -17 85 -9 77 4 -3 8 -17 9 -29z m85 -238 c0
-5 -7 -7 -15 -4 -8 4 -15 8 -15 10 0 2 7 4 15 4 8 0 15 -4 15 -10z m33 -58 c4
9 6 9 6 1 2 -23 -18 -23 -29 -1 -10 21 -10 22 3 5 11 -14 16 -15 20 -5z m182
-72 c-3 -5 -11 -10 -16 -10 -6 0 -7 5 -4 10 3 6 11 10 16 10 6 0 7 -4 4 -10z"/>
<path d="M4270 900 c-109 -37 -161 -138 -129 -252 l10 -38 57 0 c38 0 66 6 82
17 22 16 23 16 17 0 -5 -13 -1 -17 18 -17 24 0 55 23 55 41 0 5 17 9 39 9 49
0 75 25 46 46 -10 8 -25 14 -32 14 -8 0 -4 13 12 36 17 25 25 50 25 81 0 42
-2 45 -42 63 -54 24 -88 24 -158 0z m145 -210 c-17 -6 -55 -3 -55 5 0 2 17 3
38 3 27 0 32 -2 17 -8z"/>
<path d="M2980 877 c-28 -14 -35 -36 -25 -74 5 -20 9 -23 18 -14 16 16 47 14
47 -4 0 -8 -5 -15 -11 -15 -6 0 -1 -13 11 -30 29 -40 80 -42 115 -4 22 24 25
25 25 8 0 -11 6 -28 14 -39 13 -19 11 -20 -55 -22 -64 -2 -72 0 -107 29 l-37
32 34 -36 c38 -41 55 -46 130 -39 51 6 56 4 87 -26 21 -22 41 -33 61 -33 26 1
26 1 8 12 -11 6 -37 24 -57 40 -31 24 -38 36 -38 63 0 42 -42 93 -104 128 -59
33 -87 38 -116 24z"/>
<path d="M3338 794 c13 -24 40 -49 47 -42 3 2 -9 18 -26 34 -24 22 -29 24 -21
8z"/>
<path d="M2050 770 c0 -13 11 -13 30 0 12 8 11 10 -7 10 -13 0 -23 -4 -23 -10z"/>
<path d="M3255 770 c-8 -14 23 -56 84 -113 39 -37 57 -47 83 -47 l33 1 -80 74
c-91 86 -111 100 -120 85z"/>
<path d="M2630 651 c0 -17 5 -31 10 -31 6 0 10 11 10 24 0 14 -4 28 -10 31 -6
4 -10 -7 -10 -24z"/>
</g>
</svg>
